<svg xmlns="http://www.w3.org/2000/svg" width="400" height="300" viewBox="0 0 400 300">
  <defs>
    <linearGradient id="bg2" x1="0%" y1="0%" x2="100%" y2="100%">
      <stop offset="0%" style="stop-color:#4A0080"/>
      <stop offset="100%" style="stop-color:#2B004F"/>
    </linearGradient>
  </defs>
  <rect width="400" height="300" fill="url(#bg2)"/>
  <rect x="100" y="80" width="200" height="170" fill="#FFFFFF" rx="10"/>
  <rect x="110" y="95" width="30" height="35" fill="#FFA500"/>
  <rect x="150" y="95" width="30" height="35" fill="#FFA500"/>
  <rect x="190" y="95" width="30" height="35" fill="#FFA500"/>
  <rect x="230" y="95" width="30" height="35" fill="#FFA500"/>
  <rect x="110" y="140" width="30" height="35" fill="#FFA500"/>
  <rect x="150" y="140" width="30" height="35" fill="#FFA500"/>
  <rect x="190" y="140" width="30" height="35" fill="#FFA500"/>
  <rect x="230" y="140" width="30" height="35" fill="#FFA500"/>
  <rect x="170" y="190" width="60" height="60" fill="#2B004F" rx="5"/>
  <circle cx="220" cy="220" r="5" fill="#FFA500"/>
  <polygon points="200,50 100,80 300,80" fill="#FFA500"/>
  <text x="200" y="280" text-anchor="middle" fill="#FFFFFF" font-family="Arial" font-size="14">Modern Architecture</text>
</svg>
